<mxfile host="Electron" modified="2023-05-03T13:54:02.113Z" agent="Mozilla/5.0 (Windows NT 10.0; Win64; x64) AppleWebKit/537.36 (KHTML, like Gecko) draw.io/21.2.1 Chrome/112.0.5615.87 Electron/24.1.2 Safari/537.36" etag="c92E9hL3PD0Nl3AlDvdh" version="21.2.1" type="device">
  <diagram name="Page-1" id="MuWw8hlP-7gh3ki9MRSE">
    <mxGraphModel dx="864" dy="526" grid="1" gridSize="10" guides="1" tooltips="1" connect="1" arrows="1" fold="1" page="1" pageScale="1" pageWidth="827" pageHeight="1169" math="0" shadow="0">
      <root>
        <mxCell id="0" />
        <mxCell id="1" parent="0" />
        <mxCell id="n9vFjWYDE5SBtBu7MkNS-1" value="Admin&amp;nbsp;" style="shape=umlActor;verticalLabelPosition=bottom;verticalAlign=top;html=1;points=[[0,0.3333333333333333,0,0,0],[0,1,0,0,0],[0.25,0.1,0,0,0],[0.5,0,0,0,0],[0.5,0.5,0,0,0],[0.55,1,0,0,31],[0.75,0.1,0,0,0],[1,0.3333333333333333,0,0,0],[1,1,0,0,0]];" parent="1" vertex="1">
          <mxGeometry x="105" y="40" width="30" height="60" as="geometry" />
        </mxCell>
        <mxCell id="n9vFjWYDE5SBtBu7MkNS-2" value="" style="rounded=0;orthogonalLoop=1;jettySize=auto;html=1;dashed=1;endArrow=none;endFill=0;exitX=0.55;exitY=1;exitDx=0;exitDy=31;exitPerimeter=0;" parent="1" source="n9vFjWYDE5SBtBu7MkNS-1" edge="1">
          <mxGeometry relative="1" as="geometry">
            <mxPoint x="-114" y="110" as="sourcePoint" />
            <mxPoint x="120" y="1140" as="targetPoint" />
          </mxGeometry>
        </mxCell>
        <mxCell id="n9vFjWYDE5SBtBu7MkNS-8" value="DATABASE" style="shape=umlLifeline;perimeter=lifelinePerimeter;whiteSpace=wrap;html=1;container=0;collapsible=0;recursiveResize=0;outlineConnect=0;rounded=1;shadow=0;comic=0;labelBackgroundColor=none;strokeWidth=1;fontFamily=Verdana;fontSize=14;align=center;" parent="1" vertex="1">
          <mxGeometry x="710" y="40" width="100" height="1100" as="geometry" />
        </mxCell>
        <mxCell id="px0kRCxZ70n3IqBrhg40-1" value=":Branch" style="shape=umlLifeline;perimeter=lifelinePerimeter;whiteSpace=wrap;html=1;container=1;collapsible=0;recursiveResize=0;outlineConnect=0;rounded=1;shadow=0;comic=0;labelBackgroundColor=none;strokeWidth=1;fontFamily=Verdana;fontSize=14;align=center;" parent="1" vertex="1">
          <mxGeometry x="300" y="40" width="100" height="1100" as="geometry" />
        </mxCell>
        <mxCell id="px0kRCxZ70n3IqBrhg40-2" value="" style="html=1;points=[];perimeter=orthogonalPerimeter;rounded=0;shadow=0;comic=0;labelBackgroundColor=none;strokeWidth=1;fontFamily=Verdana;fontSize=12;align=center;" parent="px0kRCxZ70n3IqBrhg40-1" vertex="1">
          <mxGeometry x="44" y="130" width="10" height="42" as="geometry" />
        </mxCell>
        <mxCell id="px0kRCxZ70n3IqBrhg40-16" value="" style="html=1;points=[];perimeter=orthogonalPerimeter;rounded=0;shadow=0;comic=0;labelBackgroundColor=none;strokeWidth=1;fontFamily=Verdana;fontSize=12;align=center;" parent="px0kRCxZ70n3IqBrhg40-1" vertex="1">
          <mxGeometry x="45" y="310" width="10" height="42" as="geometry" />
        </mxCell>
        <mxCell id="px0kRCxZ70n3IqBrhg40-22" value="" style="html=1;points=[];perimeter=orthogonalPerimeter;rounded=0;shadow=0;comic=0;labelBackgroundColor=none;strokeWidth=1;fontFamily=Verdana;fontSize=12;align=center;" parent="px0kRCxZ70n3IqBrhg40-1" vertex="1">
          <mxGeometry x="44" y="410" width="10" height="42" as="geometry" />
        </mxCell>
        <mxCell id="px0kRCxZ70n3IqBrhg40-27" value="" style="html=1;points=[];perimeter=orthogonalPerimeter;rounded=0;shadow=0;comic=0;labelBackgroundColor=none;strokeWidth=1;fontFamily=Verdana;fontSize=12;align=center;" parent="px0kRCxZ70n3IqBrhg40-1" vertex="1">
          <mxGeometry x="43" y="501" width="10" height="42" as="geometry" />
        </mxCell>
        <mxCell id="NZ6eJ1wo7ZMZ6AKaqPVT-7" value="" style="html=1;points=[];perimeter=orthogonalPerimeter;rounded=0;shadow=0;comic=0;labelBackgroundColor=none;strokeWidth=1;fontFamily=Verdana;fontSize=12;align=center;" parent="px0kRCxZ70n3IqBrhg40-1" vertex="1">
          <mxGeometry x="45" y="210" width="10" height="42" as="geometry" />
        </mxCell>
        <mxCell id="px0kRCxZ70n3IqBrhg40-6" value=":Warehouse" style="shape=umlLifeline;perimeter=lifelinePerimeter;whiteSpace=wrap;html=1;container=1;collapsible=0;recursiveResize=0;outlineConnect=0;rounded=1;shadow=0;comic=0;labelBackgroundColor=none;strokeWidth=1;fontFamily=Verdana;fontSize=14;align=center;" parent="1" vertex="1">
          <mxGeometry x="520" y="40" width="100" height="1100" as="geometry" />
        </mxCell>
        <mxCell id="px0kRCxZ70n3IqBrhg40-33" value="" style="html=1;points=[];perimeter=orthogonalPerimeter;rounded=0;shadow=0;comic=0;labelBackgroundColor=none;strokeWidth=1;fontFamily=Verdana;fontSize=12;align=center;" parent="px0kRCxZ70n3IqBrhg40-6" vertex="1">
          <mxGeometry x="45" y="820" width="10" height="42" as="geometry" />
        </mxCell>
        <mxCell id="px0kRCxZ70n3IqBrhg40-38" value="" style="html=1;points=[];perimeter=orthogonalPerimeter;rounded=0;shadow=0;comic=0;labelBackgroundColor=none;strokeWidth=1;fontFamily=Verdana;fontSize=12;align=center;" parent="px0kRCxZ70n3IqBrhg40-6" vertex="1">
          <mxGeometry x="45" y="930" width="10" height="42" as="geometry" />
        </mxCell>
        <mxCell id="px0kRCxZ70n3IqBrhg40-41" value="" style="html=1;points=[];perimeter=orthogonalPerimeter;rounded=0;shadow=0;comic=0;labelBackgroundColor=none;strokeWidth=1;fontFamily=Verdana;fontSize=12;align=center;" parent="px0kRCxZ70n3IqBrhg40-6" vertex="1">
          <mxGeometry x="44" y="1018" width="10" height="42" as="geometry" />
        </mxCell>
        <mxCell id="NZ6eJ1wo7ZMZ6AKaqPVT-23" value="" style="html=1;points=[];perimeter=orthogonalPerimeter;rounded=0;shadow=0;comic=0;labelBackgroundColor=none;strokeWidth=1;fontFamily=Verdana;fontSize=12;align=center;" parent="px0kRCxZ70n3IqBrhg40-6" vertex="1">
          <mxGeometry x="45" y="620" width="10" height="42" as="geometry" />
        </mxCell>
        <mxCell id="NZ6eJ1wo7ZMZ6AKaqPVT-24" value="&lt;font style=&quot;font-size: 12px;&quot;&gt;addBranch()&lt;/font&gt;" style="html=1;verticalAlign=bottom;endArrow=block;edgeStyle=elbowEdgeStyle;elbow=vertical;curved=0;rounded=0;fontSize=14;entryX=0.133;entryY=-0.034;entryDx=0;entryDy=0;entryPerimeter=0;" parent="px0kRCxZ70n3IqBrhg40-6" target="NZ6eJ1wo7ZMZ6AKaqPVT-26" edge="1">
          <mxGeometry x="0.0188" width="80" relative="1" as="geometry">
            <mxPoint x="56" y="626" as="sourcePoint" />
            <mxPoint x="233" y="626.3299999999999" as="targetPoint" />
            <mxPoint as="offset" />
          </mxGeometry>
        </mxCell>
        <mxCell id="NZ6eJ1wo7ZMZ6AKaqPVT-25" value="&lt;font style=&quot;font-size: 12px;&quot;&gt;Warehouse Added&lt;/font&gt;" style="html=1;verticalAlign=bottom;endArrow=open;dashed=1;endSize=8;edgeStyle=elbowEdgeStyle;elbow=vertical;curved=0;rounded=0;" parent="px0kRCxZ70n3IqBrhg40-6" edge="1">
          <mxGeometry x="-0.0009" relative="1" as="geometry">
            <mxPoint x="239.5" y="655.3299999999999" as="sourcePoint" />
            <mxPoint x="56" y="654" as="targetPoint" />
            <mxPoint as="offset" />
          </mxGeometry>
        </mxCell>
        <mxCell id="NZ6eJ1wo7ZMZ6AKaqPVT-40" value="&lt;font style=&quot;font-size: 12px;&quot;&gt;deleteBranch(Id)&lt;/font&gt;" style="html=1;verticalAlign=bottom;endArrow=block;edgeStyle=elbowEdgeStyle;elbow=vertical;curved=0;rounded=0;fontSize=14;entryX=0.133;entryY=-0.034;entryDx=0;entryDy=0;entryPerimeter=0;" parent="px0kRCxZ70n3IqBrhg40-6" edge="1">
          <mxGeometry x="0.0188" width="80" relative="1" as="geometry">
            <mxPoint x="55" y="1024.84" as="sourcePoint" />
            <mxPoint x="236" y="1023.8399999999999" as="targetPoint" />
            <mxPoint as="offset" />
          </mxGeometry>
        </mxCell>
        <mxCell id="NZ6eJ1wo7ZMZ6AKaqPVT-41" value="&lt;font style=&quot;font-size: 12px;&quot;&gt;Warehouse Deleted&lt;/font&gt;" style="html=1;verticalAlign=bottom;endArrow=open;dashed=1;endSize=8;edgeStyle=elbowEdgeStyle;elbow=vertical;curved=0;rounded=0;" parent="px0kRCxZ70n3IqBrhg40-6" edge="1">
          <mxGeometry x="-0.0009" relative="1" as="geometry">
            <mxPoint x="238.5" y="1054.1699999999998" as="sourcePoint" />
            <mxPoint x="55" y="1052.84" as="targetPoint" />
            <mxPoint as="offset" />
          </mxGeometry>
        </mxCell>
        <mxCell id="px0kRCxZ70n3IqBrhg40-17" value="&lt;font style=&quot;font-size: 12px;&quot;&gt;getBranch(id)&lt;/font&gt;" style="html=1;verticalAlign=bottom;endArrow=block;edgeStyle=elbowEdgeStyle;elbow=vertical;curved=0;rounded=0;fontSize=14;" parent="1" edge="1">
          <mxGeometry width="80" relative="1" as="geometry">
            <mxPoint x="125" y="350" as="sourcePoint" />
            <mxPoint x="344" y="350" as="targetPoint" />
            <mxPoint as="offset" />
          </mxGeometry>
        </mxCell>
        <mxCell id="px0kRCxZ70n3IqBrhg40-19" value="&lt;font style=&quot;font-size: 12px;&quot;&gt;Get Branch&lt;/font&gt;" style="html=1;verticalAlign=bottom;endArrow=open;dashed=1;endSize=8;edgeStyle=elbowEdgeStyle;elbow=vertical;curved=0;rounded=0;" parent="1" edge="1">
          <mxGeometry relative="1" as="geometry">
            <mxPoint x="340" y="391" as="sourcePoint" />
            <mxPoint x="127" y="391" as="targetPoint" />
          </mxGeometry>
        </mxCell>
        <mxCell id="px0kRCxZ70n3IqBrhg40-20" value="&lt;font style=&quot;font-size: 12px;&quot;&gt;getAllBranch()&lt;/font&gt;" style="html=1;verticalAlign=bottom;endArrow=block;elbow=vertical;rounded=0;fontSize=14;entryX=0;entryY=0.071;entryDx=0;entryDy=0;entryPerimeter=0;" parent="1" target="px0kRCxZ70n3IqBrhg40-22" edge="1">
          <mxGeometry width="80" relative="1" as="geometry">
            <mxPoint x="127" y="452" as="sourcePoint" />
            <mxPoint x="340" y="452" as="targetPoint" />
            <mxPoint as="offset" />
          </mxGeometry>
        </mxCell>
        <mxCell id="px0kRCxZ70n3IqBrhg40-21" value="&lt;font style=&quot;font-size: 12px;&quot;&gt;Get All Branch&lt;/font&gt;" style="html=1;verticalAlign=bottom;endArrow=open;dashed=1;endSize=8;edgeStyle=elbowEdgeStyle;elbow=vertical;curved=0;rounded=0;" parent="1" edge="1">
          <mxGeometry relative="1" as="geometry">
            <mxPoint x="354.5" y="492" as="sourcePoint" />
            <mxPoint x="130" y="492" as="targetPoint" />
          </mxGeometry>
        </mxCell>
        <mxCell id="px0kRCxZ70n3IqBrhg40-25" value="&lt;font style=&quot;font-size: 12px;&quot;&gt;deleteBranch(Id)&lt;/font&gt;" style="html=1;verticalAlign=bottom;endArrow=block;elbow=vertical;rounded=0;fontSize=14;" parent="1" edge="1">
          <mxGeometry width="80" relative="1" as="geometry">
            <mxPoint x="127" y="543" as="sourcePoint" />
            <mxPoint x="341" y="542" as="targetPoint" />
            <mxPoint as="offset" />
          </mxGeometry>
        </mxCell>
        <mxCell id="px0kRCxZ70n3IqBrhg40-26" value="" style="html=1;verticalAlign=bottom;endArrow=open;dashed=1;endSize=8;edgeStyle=elbowEdgeStyle;elbow=vertical;curved=0;rounded=0;" parent="1" edge="1">
          <mxGeometry relative="1" as="geometry">
            <mxPoint x="349.5" y="584" as="sourcePoint" />
            <mxPoint x="125" y="584" as="targetPoint" />
          </mxGeometry>
        </mxCell>
        <mxCell id="NZ6eJ1wo7ZMZ6AKaqPVT-22" value="&lt;font style=&quot;font-size: 12px;&quot;&gt;Branch Deleted&lt;/font&gt;" style="edgeLabel;html=1;align=center;verticalAlign=middle;resizable=0;points=[];" parent="px0kRCxZ70n3IqBrhg40-26" vertex="1" connectable="0">
          <mxGeometry x="-0.2198" y="-1" relative="1" as="geometry">
            <mxPoint x="-27" y="-9" as="offset" />
          </mxGeometry>
        </mxCell>
        <mxCell id="px0kRCxZ70n3IqBrhg40-32" value="&lt;font style=&quot;font-size: 12px;&quot;&gt;getWarehouse(Id)&lt;/font&gt;" style="html=1;verticalAlign=bottom;endArrow=block;edgeStyle=elbowEdgeStyle;elbow=vertical;curved=0;rounded=0;fontSize=14;" parent="1" edge="1">
          <mxGeometry x="0.4799" width="80" relative="1" as="geometry">
            <mxPoint x="126" y="860" as="sourcePoint" />
            <mxPoint x="565.5" y="860.3333333333333" as="targetPoint" />
            <mxPoint as="offset" />
          </mxGeometry>
        </mxCell>
        <mxCell id="px0kRCxZ70n3IqBrhg40-34" value="" style="html=1;verticalAlign=bottom;endArrow=open;dashed=1;endSize=8;edgeStyle=elbowEdgeStyle;elbow=vertical;curved=0;rounded=0;" parent="1" edge="1">
          <mxGeometry relative="1" as="geometry">
            <mxPoint x="565.5" y="901.3333333333333" as="sourcePoint" />
            <mxPoint x="126" y="901" as="targetPoint" />
          </mxGeometry>
        </mxCell>
        <mxCell id="px0kRCxZ70n3IqBrhg40-35" value="&lt;font style=&quot;font-size: 12px;&quot;&gt;Get Warehouse&lt;/font&gt;" style="edgeLabel;html=1;align=center;verticalAlign=middle;resizable=0;points=[];" parent="px0kRCxZ70n3IqBrhg40-34" vertex="1" connectable="0">
          <mxGeometry x="0.4385" y="1" relative="1" as="geometry">
            <mxPoint y="-11" as="offset" />
          </mxGeometry>
        </mxCell>
        <mxCell id="px0kRCxZ70n3IqBrhg40-30" value="&lt;font style=&quot;font-size: 12px;&quot;&gt;Warehouse Added&lt;/font&gt;" style="html=1;verticalAlign=bottom;endArrow=open;dashed=1;endSize=8;edgeStyle=elbowEdgeStyle;elbow=vertical;curved=0;rounded=0;entryX=1.2;entryY=0.587;entryDx=0;entryDy=0;entryPerimeter=0;" parent="1" edge="1">
          <mxGeometry x="0.4904" relative="1" as="geometry">
            <mxPoint x="569.5" y="702.3333333333333" as="sourcePoint" />
            <mxPoint x="127" y="702.1700000000001" as="targetPoint" />
            <mxPoint as="offset" />
          </mxGeometry>
        </mxCell>
        <mxCell id="px0kRCxZ70n3IqBrhg40-36" value="&lt;font style=&quot;font-size: 12px;&quot;&gt;getAllWarehouse()&lt;/font&gt;" style="html=1;verticalAlign=bottom;endArrow=block;elbow=vertical;rounded=0;fontSize=14;" parent="1" edge="1">
          <mxGeometry x="0.5279" width="80" relative="1" as="geometry">
            <mxPoint x="127" y="970" as="sourcePoint" />
            <mxPoint x="565" y="970" as="targetPoint" />
            <mxPoint as="offset" />
          </mxGeometry>
        </mxCell>
        <mxCell id="n9vFjWYDE5SBtBu7MkNS-9" value="" style="html=1;points=[[0,0,0,0,0]];perimeter=orthogonalPerimeter;rounded=0;shadow=0;comic=0;labelBackgroundColor=none;strokeWidth=1;fontFamily=Verdana;fontSize=12;align=center;" parent="1" vertex="1">
          <mxGeometry x="115" y="150" width="10" height="960" as="geometry" />
        </mxCell>
        <mxCell id="px0kRCxZ70n3IqBrhg40-37" value="&lt;font style=&quot;font-size: 12px;&quot;&gt;Get All Warehouse&lt;/font&gt;" style="html=1;verticalAlign=bottom;endArrow=open;dashed=1;endSize=8;edgeStyle=elbowEdgeStyle;elbow=vertical;curved=0;rounded=0;" parent="1" edge="1">
          <mxGeometry x="0.4618" relative="1" as="geometry">
            <mxPoint x="570" y="1012" as="sourcePoint" />
            <mxPoint x="125" y="1012" as="targetPoint" />
            <mxPoint x="1" as="offset" />
          </mxGeometry>
        </mxCell>
        <mxCell id="px0kRCxZ70n3IqBrhg40-13" value="&lt;font style=&quot;font-size: 12px;&quot;&gt;addBranch()&lt;/font&gt;" style="html=1;verticalAlign=bottom;endArrow=block;edgeStyle=elbowEdgeStyle;elbow=vertical;curved=0;rounded=0;fontSize=14;" parent="1" edge="1">
          <mxGeometry width="80" relative="1" as="geometry">
            <mxPoint x="125" y="170" as="sourcePoint" />
            <mxPoint x="343" y="170" as="targetPoint" />
            <mxPoint as="offset" />
          </mxGeometry>
        </mxCell>
        <mxCell id="px0kRCxZ70n3IqBrhg40-15" value="&lt;font style=&quot;font-size: 12px;&quot;&gt;Branch Added&lt;/font&gt;" style="html=1;verticalAlign=bottom;endArrow=open;dashed=1;endSize=8;edgeStyle=elbowEdgeStyle;elbow=vertical;curved=0;rounded=0;" parent="1" edge="1">
          <mxGeometry relative="1" as="geometry">
            <mxPoint x="350" y="213" as="sourcePoint" />
            <mxPoint x="125" y="213" as="targetPoint" />
          </mxGeometry>
        </mxCell>
        <mxCell id="px0kRCxZ70n3IqBrhg40-28" value="&lt;font style=&quot;font-size: 12px;&quot;&gt;addWarehouse()&lt;/font&gt;" style="html=1;verticalAlign=bottom;endArrow=block;edgeStyle=elbowEdgeStyle;elbow=vertical;curved=0;rounded=0;fontSize=14;" parent="1" target="px0kRCxZ70n3IqBrhg40-6" edge="1">
          <mxGeometry x="0.5285" width="80" relative="1" as="geometry">
            <mxPoint x="125" y="660" as="sourcePoint" />
            <mxPoint x="360" y="660" as="targetPoint" />
            <mxPoint as="offset" />
          </mxGeometry>
        </mxCell>
        <mxCell id="px0kRCxZ70n3IqBrhg40-39" value="&lt;font style=&quot;font-size: 12px;&quot;&gt;deleteBranch(Id)&lt;/font&gt;" style="html=1;verticalAlign=bottom;endArrow=block;elbow=vertical;rounded=0;fontSize=14;entryX=-0.067;entryY=0.063;entryDx=0;entryDy=0;entryPerimeter=0;" parent="1" target="px0kRCxZ70n3IqBrhg40-41" edge="1">
          <mxGeometry x="0.5265" width="80" relative="1" as="geometry">
            <mxPoint x="127" y="1060" as="sourcePoint" />
            <mxPoint x="563" y="1060" as="targetPoint" />
            <mxPoint as="offset" />
          </mxGeometry>
        </mxCell>
        <mxCell id="px0kRCxZ70n3IqBrhg40-40" value="" style="html=1;verticalAlign=bottom;endArrow=open;dashed=1;endSize=8;edgeStyle=elbowEdgeStyle;elbow=vertical;curved=0;rounded=0;" parent="1" edge="1">
          <mxGeometry relative="1" as="geometry">
            <mxPoint x="569.5" y="1101" as="sourcePoint" />
            <mxPoint x="125" y="1101" as="targetPoint" />
          </mxGeometry>
        </mxCell>
        <mxCell id="NZ6eJ1wo7ZMZ6AKaqPVT-43" value="&lt;font style=&quot;font-size: 12px;&quot;&gt;Warehouse Deleted&lt;/font&gt;" style="edgeLabel;html=1;align=center;verticalAlign=middle;resizable=0;points=[];" parent="px0kRCxZ70n3IqBrhg40-40" vertex="1" connectable="0">
          <mxGeometry x="0.5092" relative="1" as="geometry">
            <mxPoint x="6" y="-11" as="offset" />
          </mxGeometry>
        </mxCell>
        <mxCell id="NZ6eJ1wo7ZMZ6AKaqPVT-1" value="&lt;font style=&quot;font-size: 12px;&quot;&gt;addBranch()&lt;/font&gt;" style="html=1;verticalAlign=bottom;endArrow=block;edgeStyle=elbowEdgeStyle;elbow=vertical;curved=0;rounded=0;fontSize=14;entryX=0.133;entryY=0;entryDx=0;entryDy=0;entryPerimeter=0;" parent="1" target="NZ6eJ1wo7ZMZ6AKaqPVT-2" edge="1">
          <mxGeometry x="0.5636" y="1" width="80" relative="1" as="geometry">
            <mxPoint x="355" y="178" as="sourcePoint" />
            <mxPoint x="754" y="178" as="targetPoint" />
            <mxPoint as="offset" />
          </mxGeometry>
        </mxCell>
        <mxCell id="NZ6eJ1wo7ZMZ6AKaqPVT-2" value="" style="html=1;points=[];perimeter=orthogonalPerimeter;rounded=0;shadow=0;comic=0;labelBackgroundColor=none;strokeWidth=1;fontFamily=Verdana;fontSize=12;align=center;" parent="1" vertex="1">
          <mxGeometry x="756" y="177" width="10" height="29" as="geometry" />
        </mxCell>
        <mxCell id="NZ6eJ1wo7ZMZ6AKaqPVT-3" value="&lt;font style=&quot;font-size: 12px;&quot;&gt;Branch Added&lt;/font&gt;" style="html=1;verticalAlign=bottom;endArrow=open;dashed=1;endSize=8;edgeStyle=elbowEdgeStyle;elbow=vertical;curved=0;rounded=0;entryX=1;entryY=0.714;entryDx=0;entryDy=0;entryPerimeter=0;" parent="1" edge="1">
          <mxGeometry x="0.4764" relative="1" as="geometry">
            <mxPoint x="759.5" y="206" as="sourcePoint" />
            <mxPoint x="354" y="205.98800000000006" as="targetPoint" />
            <mxPoint as="offset" />
          </mxGeometry>
        </mxCell>
        <mxCell id="NZ6eJ1wo7ZMZ6AKaqPVT-4" value="&lt;font style=&quot;font-size: 12px;&quot;&gt;editBranch()&lt;/font&gt;" style="html=1;verticalAlign=bottom;endArrow=block;edgeStyle=elbowEdgeStyle;elbow=vertical;curved=0;rounded=0;fontSize=14;" parent="1" edge="1">
          <mxGeometry width="80" relative="1" as="geometry">
            <mxPoint x="125" y="250" as="sourcePoint" />
            <mxPoint x="344" y="251" as="targetPoint" />
            <mxPoint as="offset" />
          </mxGeometry>
        </mxCell>
        <mxCell id="NZ6eJ1wo7ZMZ6AKaqPVT-5" value="&lt;font style=&quot;font-size: 12px;&quot;&gt;Branch Edited&lt;/font&gt;" style="html=1;verticalAlign=bottom;endArrow=open;dashed=1;endSize=8;edgeStyle=elbowEdgeStyle;elbow=vertical;curved=0;rounded=0;" parent="1" edge="1">
          <mxGeometry relative="1" as="geometry">
            <mxPoint x="350" y="293" as="sourcePoint" />
            <mxPoint x="125" y="293" as="targetPoint" />
          </mxGeometry>
        </mxCell>
        <mxCell id="NZ6eJ1wo7ZMZ6AKaqPVT-8" value="&lt;font style=&quot;font-size: 12px;&quot;&gt;editBranch()&lt;/font&gt;" style="html=1;verticalAlign=bottom;endArrow=block;edgeStyle=elbowEdgeStyle;elbow=vertical;curved=0;rounded=0;fontSize=14;entryX=0.133;entryY=0;entryDx=0;entryDy=0;entryPerimeter=0;" parent="1" edge="1">
          <mxGeometry x="0.5636" y="1" width="80" relative="1" as="geometry">
            <mxPoint x="356.25" y="258" as="sourcePoint" />
            <mxPoint x="758.25" y="257" as="targetPoint" />
            <mxPoint as="offset" />
          </mxGeometry>
        </mxCell>
        <mxCell id="NZ6eJ1wo7ZMZ6AKaqPVT-9" value="&lt;font style=&quot;font-size: 12px;&quot;&gt;Branch Edited&lt;/font&gt;" style="html=1;verticalAlign=bottom;endArrow=open;dashed=1;endSize=8;edgeStyle=elbowEdgeStyle;elbow=vertical;curved=0;rounded=0;entryX=1;entryY=0.714;entryDx=0;entryDy=0;entryPerimeter=0;" parent="1" edge="1">
          <mxGeometry x="0.4764" relative="1" as="geometry">
            <mxPoint x="760.75" y="286" as="sourcePoint" />
            <mxPoint x="355.25" y="285.98800000000006" as="targetPoint" />
            <mxPoint as="offset" />
          </mxGeometry>
        </mxCell>
        <mxCell id="NZ6eJ1wo7ZMZ6AKaqPVT-10" value="" style="html=1;points=[];perimeter=orthogonalPerimeter;rounded=0;shadow=0;comic=0;labelBackgroundColor=none;strokeWidth=1;fontFamily=Verdana;fontSize=12;align=center;" parent="1" vertex="1">
          <mxGeometry x="756" y="256" width="10" height="29" as="geometry" />
        </mxCell>
        <mxCell id="NZ6eJ1wo7ZMZ6AKaqPVT-13" value="&lt;font style=&quot;font-size: 12px;&quot;&gt;getBranch(Id)&lt;/font&gt;" style="html=1;verticalAlign=bottom;endArrow=block;edgeStyle=elbowEdgeStyle;elbow=vertical;curved=0;rounded=0;fontSize=14;entryX=0.133;entryY=0;entryDx=0;entryDy=0;entryPerimeter=0;" parent="1" edge="1">
          <mxGeometry x="0.5636" y="1" width="80" relative="1" as="geometry">
            <mxPoint x="355.5" y="357.33" as="sourcePoint" />
            <mxPoint x="757.5" y="356.33" as="targetPoint" />
            <mxPoint as="offset" />
          </mxGeometry>
        </mxCell>
        <mxCell id="NZ6eJ1wo7ZMZ6AKaqPVT-14" value="&lt;font style=&quot;font-size: 12px;&quot;&gt;Get Branch&lt;/font&gt;" style="html=1;verticalAlign=bottom;endArrow=open;dashed=1;endSize=8;edgeStyle=elbowEdgeStyle;elbow=vertical;curved=0;rounded=0;entryX=1;entryY=0.714;entryDx=0;entryDy=0;entryPerimeter=0;" parent="1" edge="1">
          <mxGeometry x="0.4764" relative="1" as="geometry">
            <mxPoint x="760" y="385.33" as="sourcePoint" />
            <mxPoint x="354.5" y="385.31800000000004" as="targetPoint" />
            <mxPoint as="offset" />
          </mxGeometry>
        </mxCell>
        <mxCell id="NZ6eJ1wo7ZMZ6AKaqPVT-15" value="" style="html=1;points=[];perimeter=orthogonalPerimeter;rounded=0;shadow=0;comic=0;labelBackgroundColor=none;strokeWidth=1;fontFamily=Verdana;fontSize=12;align=center;" parent="1" vertex="1">
          <mxGeometry x="756" y="356.5" width="10" height="29" as="geometry" />
        </mxCell>
        <mxCell id="px0kRCxZ70n3IqBrhg40-18" value="loop" style="shape=umlFrame;whiteSpace=wrap;html=1;pointerEvents=0;" parent="1" vertex="1">
          <mxGeometry x="10" y="320" width="810" height="90" as="geometry" />
        </mxCell>
        <mxCell id="NZ6eJ1wo7ZMZ6AKaqPVT-16" value="&lt;font style=&quot;font-size: 12px;&quot;&gt;getBranch(Id)&lt;/font&gt;" style="html=1;verticalAlign=bottom;endArrow=block;edgeStyle=elbowEdgeStyle;elbow=vertical;curved=0;rounded=0;fontSize=14;entryX=0.133;entryY=0;entryDx=0;entryDy=0;entryPerimeter=0;" parent="1" edge="1">
          <mxGeometry x="0.5636" y="1" width="80" relative="1" as="geometry">
            <mxPoint x="354.5" y="459" as="sourcePoint" />
            <mxPoint x="756.5" y="458" as="targetPoint" />
            <mxPoint as="offset" />
          </mxGeometry>
        </mxCell>
        <mxCell id="NZ6eJ1wo7ZMZ6AKaqPVT-17" value="&lt;font style=&quot;font-size: 12px;&quot;&gt;Get Branch&lt;/font&gt;" style="html=1;verticalAlign=bottom;endArrow=open;dashed=1;endSize=8;edgeStyle=elbowEdgeStyle;elbow=vertical;curved=0;rounded=0;entryX=1;entryY=0.714;entryDx=0;entryDy=0;entryPerimeter=0;" parent="1" edge="1">
          <mxGeometry x="0.4764" relative="1" as="geometry">
            <mxPoint x="759" y="487" as="sourcePoint" />
            <mxPoint x="353.5" y="486.98800000000006" as="targetPoint" />
            <mxPoint as="offset" />
          </mxGeometry>
        </mxCell>
        <mxCell id="NZ6eJ1wo7ZMZ6AKaqPVT-18" value="" style="html=1;points=[];perimeter=orthogonalPerimeter;rounded=0;shadow=0;comic=0;labelBackgroundColor=none;strokeWidth=1;fontFamily=Verdana;fontSize=12;align=center;" parent="1" vertex="1">
          <mxGeometry x="756" y="458" width="10" height="29" as="geometry" />
        </mxCell>
        <mxCell id="NZ6eJ1wo7ZMZ6AKaqPVT-19" value="&lt;font style=&quot;font-size: 12px;&quot;&gt;deleteBranch(Id)&lt;/font&gt;" style="html=1;verticalAlign=bottom;endArrow=block;edgeStyle=elbowEdgeStyle;elbow=vertical;curved=0;rounded=0;fontSize=14;" parent="1" edge="1">
          <mxGeometry x="0.5636" y="1" width="80" relative="1" as="geometry">
            <mxPoint x="353" y="549" as="sourcePoint" />
            <mxPoint x="755" y="548" as="targetPoint" />
            <mxPoint as="offset" />
          </mxGeometry>
        </mxCell>
        <mxCell id="NZ6eJ1wo7ZMZ6AKaqPVT-20" value="&lt;font style=&quot;font-size: 12px;&quot;&gt;Branch Deleted&lt;/font&gt;" style="html=1;verticalAlign=bottom;endArrow=open;dashed=1;endSize=8;edgeStyle=elbowEdgeStyle;elbow=vertical;curved=0;rounded=0;entryX=1;entryY=0.714;entryDx=0;entryDy=0;entryPerimeter=0;" parent="1" edge="1">
          <mxGeometry x="0.4763" relative="1" as="geometry">
            <mxPoint x="757.5" y="577" as="sourcePoint" />
            <mxPoint x="352" y="576.988" as="targetPoint" />
            <mxPoint as="offset" />
          </mxGeometry>
        </mxCell>
        <mxCell id="NZ6eJ1wo7ZMZ6AKaqPVT-21" value="" style="html=1;points=[];perimeter=orthogonalPerimeter;rounded=0;shadow=0;comic=0;labelBackgroundColor=none;strokeWidth=1;fontFamily=Verdana;fontSize=12;align=center;" parent="1" vertex="1">
          <mxGeometry x="755" y="547" width="10" height="29" as="geometry" />
        </mxCell>
        <mxCell id="NZ6eJ1wo7ZMZ6AKaqPVT-26" value="" style="html=1;points=[];perimeter=orthogonalPerimeter;rounded=0;shadow=0;comic=0;labelBackgroundColor=none;strokeWidth=1;fontFamily=Verdana;fontSize=12;align=center;" parent="1" vertex="1">
          <mxGeometry x="756" y="666" width="10" height="29" as="geometry" />
        </mxCell>
        <mxCell id="NZ6eJ1wo7ZMZ6AKaqPVT-27" value="&lt;font style=&quot;font-size: 12px;&quot;&gt;getWarehouse&lt;/font&gt;(Id)" style="html=1;verticalAlign=bottom;endArrow=block;edgeStyle=elbowEdgeStyle;elbow=vertical;curved=0;rounded=0;fontSize=14;entryX=0.133;entryY=-0.034;entryDx=0;entryDy=0;entryPerimeter=0;" parent="1" edge="1">
          <mxGeometry x="0.0188" width="80" relative="1" as="geometry">
            <mxPoint x="575.5" y="866.84" as="sourcePoint" />
            <mxPoint x="756.5" y="865.84" as="targetPoint" />
            <mxPoint as="offset" />
          </mxGeometry>
        </mxCell>
        <mxCell id="NZ6eJ1wo7ZMZ6AKaqPVT-28" value="&lt;font style=&quot;font-size: 12px;&quot;&gt;Get Warehouse&lt;/font&gt;" style="html=1;verticalAlign=bottom;endArrow=open;dashed=1;endSize=8;edgeStyle=elbowEdgeStyle;elbow=vertical;curved=0;rounded=0;" parent="1" edge="1">
          <mxGeometry x="-0.0009" relative="1" as="geometry">
            <mxPoint x="759" y="896.17" as="sourcePoint" />
            <mxPoint x="575.5" y="894.84" as="targetPoint" />
            <mxPoint as="offset" />
          </mxGeometry>
        </mxCell>
        <mxCell id="NZ6eJ1wo7ZMZ6AKaqPVT-30" value="" style="html=1;points=[];perimeter=orthogonalPerimeter;rounded=0;shadow=0;comic=0;labelBackgroundColor=none;strokeWidth=1;fontFamily=Verdana;fontSize=12;align=center;" parent="1" vertex="1">
          <mxGeometry x="565" y="750" width="10" height="42" as="geometry" />
        </mxCell>
        <mxCell id="NZ6eJ1wo7ZMZ6AKaqPVT-31" value="&lt;font style=&quot;font-size: 12px;&quot;&gt;editBranch()&lt;/font&gt;" style="html=1;verticalAlign=bottom;endArrow=block;edgeStyle=elbowEdgeStyle;elbow=vertical;curved=0;rounded=0;fontSize=14;entryX=0.133;entryY=-0.034;entryDx=0;entryDy=0;entryPerimeter=0;" parent="1" target="NZ6eJ1wo7ZMZ6AKaqPVT-35" edge="1">
          <mxGeometry x="0.0188" width="80" relative="1" as="geometry">
            <mxPoint x="576" y="756" as="sourcePoint" />
            <mxPoint x="753" y="756.3299999999999" as="targetPoint" />
            <mxPoint as="offset" />
          </mxGeometry>
        </mxCell>
        <mxCell id="NZ6eJ1wo7ZMZ6AKaqPVT-32" value="&lt;font style=&quot;font-size: 12px;&quot;&gt;Warehouse Edited&lt;/font&gt;" style="html=1;verticalAlign=bottom;endArrow=open;dashed=1;endSize=8;edgeStyle=elbowEdgeStyle;elbow=vertical;curved=0;rounded=0;" parent="1" edge="1">
          <mxGeometry x="-0.0009" relative="1" as="geometry">
            <mxPoint x="759.5" y="785.3299999999999" as="sourcePoint" />
            <mxPoint x="576" y="784" as="targetPoint" />
            <mxPoint as="offset" />
          </mxGeometry>
        </mxCell>
        <mxCell id="NZ6eJ1wo7ZMZ6AKaqPVT-33" value="&lt;font style=&quot;font-size: 12px;&quot;&gt;Warehouse Edited&lt;/font&gt;" style="html=1;verticalAlign=bottom;endArrow=open;dashed=1;endSize=8;edgeStyle=elbowEdgeStyle;elbow=vertical;curved=0;rounded=0;entryX=1.2;entryY=0.587;entryDx=0;entryDy=0;entryPerimeter=0;" parent="1" edge="1">
          <mxGeometry x="0.4904" relative="1" as="geometry">
            <mxPoint x="569.5" y="792.3333333333333" as="sourcePoint" />
            <mxPoint x="127" y="792.1700000000001" as="targetPoint" />
            <mxPoint as="offset" />
          </mxGeometry>
        </mxCell>
        <mxCell id="NZ6eJ1wo7ZMZ6AKaqPVT-34" value="&lt;font style=&quot;font-size: 12px;&quot;&gt;editWarehouse()&lt;/font&gt;" style="html=1;verticalAlign=bottom;endArrow=block;edgeStyle=elbowEdgeStyle;elbow=vertical;curved=0;rounded=0;fontSize=14;" parent="1" edge="1">
          <mxGeometry x="0.5285" width="80" relative="1" as="geometry">
            <mxPoint x="125" y="750" as="sourcePoint" />
            <mxPoint x="570" y="750" as="targetPoint" />
            <mxPoint as="offset" />
          </mxGeometry>
        </mxCell>
        <mxCell id="NZ6eJ1wo7ZMZ6AKaqPVT-35" value="" style="html=1;points=[];perimeter=orthogonalPerimeter;rounded=0;shadow=0;comic=0;labelBackgroundColor=none;strokeWidth=1;fontFamily=Verdana;fontSize=12;align=center;" parent="1" vertex="1">
          <mxGeometry x="756" y="756" width="10" height="29" as="geometry" />
        </mxCell>
        <mxCell id="NZ6eJ1wo7ZMZ6AKaqPVT-36" value="" style="html=1;points=[];perimeter=orthogonalPerimeter;rounded=0;shadow=0;comic=0;labelBackgroundColor=none;strokeWidth=1;fontFamily=Verdana;fontSize=12;align=center;" parent="1" vertex="1">
          <mxGeometry x="756" y="867" width="10" height="29" as="geometry" />
        </mxCell>
        <mxCell id="NZ6eJ1wo7ZMZ6AKaqPVT-37" value="&lt;font style=&quot;font-size: 12px;&quot;&gt;getAllWarehouse()&lt;/font&gt;" style="html=1;verticalAlign=bottom;endArrow=block;edgeStyle=elbowEdgeStyle;elbow=vertical;curved=0;rounded=0;fontSize=14;entryX=0.133;entryY=-0.034;entryDx=0;entryDy=0;entryPerimeter=0;" parent="1" edge="1">
          <mxGeometry x="0.0188" width="80" relative="1" as="geometry">
            <mxPoint x="575" y="976" as="sourcePoint" />
            <mxPoint x="756" y="975" as="targetPoint" />
            <mxPoint as="offset" />
          </mxGeometry>
        </mxCell>
        <mxCell id="NZ6eJ1wo7ZMZ6AKaqPVT-38" value="&lt;font style=&quot;font-size: 12px;&quot;&gt;Get All Warehouse&lt;/font&gt;" style="html=1;verticalAlign=bottom;endArrow=open;dashed=1;endSize=8;edgeStyle=elbowEdgeStyle;elbow=vertical;curved=0;rounded=0;" parent="1" edge="1">
          <mxGeometry x="-0.0009" relative="1" as="geometry">
            <mxPoint x="758.5" y="1005.3299999999999" as="sourcePoint" />
            <mxPoint x="575" y="1004" as="targetPoint" />
            <mxPoint as="offset" />
          </mxGeometry>
        </mxCell>
        <mxCell id="NZ6eJ1wo7ZMZ6AKaqPVT-39" value="" style="html=1;points=[];perimeter=orthogonalPerimeter;rounded=0;shadow=0;comic=0;labelBackgroundColor=none;strokeWidth=1;fontFamily=Verdana;fontSize=12;align=center;" parent="1" vertex="1">
          <mxGeometry x="756" y="976" width="10" height="29" as="geometry" />
        </mxCell>
        <mxCell id="NZ6eJ1wo7ZMZ6AKaqPVT-42" value="" style="html=1;points=[];perimeter=orthogonalPerimeter;rounded=0;shadow=0;comic=0;labelBackgroundColor=none;strokeWidth=1;fontFamily=Verdana;fontSize=12;align=center;" parent="1" vertex="1">
          <mxGeometry x="756" y="1065" width="10" height="29" as="geometry" />
        </mxCell>
        <mxCell id="px0kRCxZ70n3IqBrhg40-31" value="loop" style="shape=umlFrame;whiteSpace=wrap;html=1;pointerEvents=0;" parent="1" vertex="1">
          <mxGeometry x="20" y="830" width="800" height="90" as="geometry" />
        </mxCell>
      </root>
    </mxGraphModel>
  </diagram>
</mxfile>
